<svg xmlns="http://www.w3.org/2000/svg" version="1.1" xmlns:xlink="http://www.w3.org/1999/xlink" xmlns:svgjs="http://svgjs.dev/svgjs" width="1000" height="1000" viewBox="0 0 1000 1000"><rect width="1000" height="1000" fill="#000000"></rect><g transform="matrix(0.7,0,0,0.7,149.57576446356546,329.72996115457306)"><svg viewBox="0 0 396 193" data-background-color="#4b91f1" preserveAspectRatio="xMidYMid meet" height="487" width="1000" xmlns="http://www.w3.org/2000/svg" xmlns:xlink="http://www.w3.org/1999/xlink"><defs></defs><g id="tight-bounds" transform="matrix(1,0,0,1,0.23999610851512898,-0.10188472523495307)"><svg viewBox="0 0 395.52 193.2037694504699" height="193.2037694504699" width="395.52"><g><svg viewBox="0 0 395.52 193.2037694504699" height="193.2037694504699" width="395.52"><g transform="matrix(1,0,0,1,0,140.4635064031128)"><svg viewBox="0 0 395.52 52.740263047357104" height="52.740263047357104" width="395.52"><g><svg viewBox="0 0 395.52 52.740263047357104" height="52.740263047357104" width="395.52"><g><svg viewBox="0 0 395.52 31.486672811059904" height="31.486672811059904" width="395.52"><g transform="matrix(1,0,0,1,0,0)"><svg width="395.52" viewBox="3.5 -34.150001525878906 433.9599914550781 34.55000305175781" height="31.486672811059904" data-palette-color="#ffffff"><path d="M9.8-14.05L9.8 0 3.5 0 3.5-33.7 10.65-33.7 18.75-19.65Q20.75-16.2 22.33-13.23 23.9-10.25 24.45-9L24.45-9 25-7.75Q24.6-11.9 24.6-19.65L24.6-19.65 24.6-33.7 30.95-33.7 30.95 0 23.75 0 15.55-14Q13.6-17.3 12.03-20.33 10.45-23.35 9.85-24.7L9.85-24.7 9.25-26.1Q9.8-21.35 9.8-14.05L9.8-14.05ZM58-5.15L58 0 37.9 0 37.9-33.7 57.8-33.7 57.8-28.55 44.25-28.55 44.25-19.4 56.3-19.4 56.3-14.3 44.25-14.3 44.25-5.15 58-5.15ZM73.3-14.25L73.3-14.25 72.84-12.8 82.34-12.8 81.9-14.3Q80.2-19.7 79.12-23.38 78.05-27.05 77.8-28L77.8-28 77.59-29Q77.15-26.5 73.3-14.25ZM71.2-7.65L68.8 0 62.2 0 73.59-33.7 81.75-33.7 93.15 0 86.34 0 83.95-7.65 71.2-7.65ZM108.39-28.5L108.39-28.5 104.29-28.5 104.29-17.5 108.49-17.5Q111.39-17.5 112.84-18.98 114.29-20.45 114.29-23.1L114.29-23.1Q114.29-25.7 112.77-27.1 111.24-28.5 108.39-28.5ZM104.29-12.3L104.29 0 97.99 0 97.99-33.7 108.39-33.7Q114.14-33.7 117.42-30.8 120.69-27.9 120.69-23.05L120.69-23.05Q120.64-19.45 118.94-16.98 117.24-14.5 114.29-13.3L114.29-13.3 122.94 0 115.39 0 107.74-12.3 104.29-12.3ZM150.84 0L150.84 0 139.84 0 139.84-33.7 150.84-33.7Q158.39-33.7 163.19-29.05 167.99-24.4 167.99-17.3L167.99-17.3Q167.99-9.55 163.34-4.78 158.69 0 150.84 0ZM150.64-28.4L150.64-28.4 146.29-28.4 146.29-5.25 150.74-5.25Q156.04-5.25 158.79-8.53 161.54-11.8 161.54-17.3L161.54-17.3Q161.54-22.15 158.61-25.28 155.69-28.4 150.64-28.4ZM180.28-33.7L180.28 0 173.99 0 173.99-33.7 180.28-33.7ZM198.08-28.5L198.08-28.5 193.98-28.5 193.98-17.5 198.18-17.5Q201.08-17.5 202.53-18.98 203.98-20.45 203.98-23.1L203.98-23.1Q203.98-25.7 202.46-27.1 200.93-28.5 198.08-28.5ZM193.98-12.3L193.98 0 187.68 0 187.68-33.7 198.08-33.7Q203.83-33.7 207.11-30.8 210.38-27.9 210.38-23.05L210.38-23.05Q210.33-19.45 208.63-16.98 206.93-14.5 203.98-13.3L203.98-13.3 212.63 0 205.08 0 197.43-12.3 193.98-12.3ZM237.23-5.15L237.23 0 217.13 0 217.13-33.7 237.03-33.7 237.03-28.55 223.48-28.55 223.48-19.4 235.53-19.4 235.53-14.3 223.48-14.3 223.48-5.15 237.23-5.15ZM268.13-7.9L268.13-1.6Q265.03 0.4 259.43 0.4L259.43 0.4Q251.93 0.4 247.05-4.33 242.18-9.05 242.18-16.85L242.18-16.85Q242.18-24.5 247-29.33 251.83-34.15 259.43-34.15L259.43-34.15Q264.98-34.15 268.08-32.3L268.08-32.3 268.08-26.15Q264.28-28.35 259.68-28.35 255.08-28.35 252-25.23 248.93-22.1 248.93-16.85 248.93-11.6 252-8.5 255.08-5.4 260.03-5.4L260.03-5.4Q264.78-5.4 268.13-7.9L268.13-7.9ZM295.23-33.7L295.23-28.5 286.68-28.5 286.68 0 280.33 0 280.33-28.5 271.78-28.5 271.78-33.7 295.23-33.7ZM323.37 0L323.37 0 312.37 0 312.37-33.7 323.37-33.7Q330.92-33.7 335.72-29.05 340.52-24.4 340.52-17.3L340.52-17.3Q340.52-9.55 335.87-4.78 331.22 0 323.37 0ZM323.17-28.4L323.17-28.4 318.82-28.4 318.82-5.25 323.27-5.25Q328.57-5.25 331.32-8.53 334.07-11.8 334.07-17.3L334.07-17.3Q334.07-22.15 331.14-25.28 328.22-28.4 323.17-28.4ZM366.22-5.15L366.22 0 346.12 0 346.12-33.7 366.02-33.7 366.02-28.55 352.47-28.55 352.47-19.4 364.52-19.4 364.52-14.3 352.47-14.3 352.47-5.15 366.22-5.15ZM386.16 0L386.16 0 372.51 0 372.51-33.7 384.46-33.7Q389.87-33.7 392.87-31.15 395.87-28.6 395.87-24.55L395.87-24.55Q395.87-21.8 394.37-19.78 392.87-17.75 390.51-17.1L390.51-17.1Q393.21-16.45 394.96-14.48 396.71-12.5 396.71-9.1L396.71-9.1Q396.71-5.1 393.91-2.55 391.12 0 386.16 0ZM383.66-28.55L383.66-28.55 378.81-28.55 378.81-19.5 382.62-19.5Q386.01-19.5 387.71-20.85 389.41-22.2 389.41-24.3L389.41-24.3Q389.41-26.25 387.99-27.4 386.56-28.55 383.66-28.55ZM383.96-14.45L383.96-14.45 378.81-14.45 378.81-5.15 384.21-5.15Q390.26-5.15 390.26-9.75L390.26-9.75Q390.26-14.45 383.96-14.45ZM408.81-33.7L408.81 0 402.51 0 402.51-33.7 408.81-33.7ZM437.46-33.7L437.46-28.5 428.91-28.5 428.91 0 422.56 0 422.56-28.5 414.01-28.5 414.01-33.7 437.46-33.7Z" opacity="1" transform="matrix(1,0,0,1,0,0)" fill="#ffffff" class="undefined-text-0" data-fill-palette-color="primary" id="text-0"></path></svg></g></svg></g><g transform="matrix(1,0,0,1,0,38.919920581603684)"><svg viewBox="0 0 395.52 13.820342465753425" height="13.820342465753425" width="395.52"><g transform="matrix(1,0,0,1,0,0)"><svg width="395.52" viewBox="0.550000011920929 -32.20000076293945 934.3099975585938 32.650001525878906" height="13.820342465753425" data-palette-color="#ffffff"><path d="M18.05-32.1L28.4 0 23.1 0 22.35-3.6 20.95-8.05 14.15-8.2 8-8.05 6.5-3.85 5.7 0 0.55 0 12-32.1 18.05-32.1ZM14.5-12.15L19.65-12.25 15.05-27.05 14.7-27.05 9.45-12.25 14.5-12.15ZM52.6-25.05L52.45-12.3 52.4-8.6Q52.45-4.35 49.7-2 46.95 0.35 41.9 0.35L41.9 0.35Q36.9 0.35 34.3-1.98 31.7-4.3 31.8-8.6L31.8-8.6 31.85-12.45 31.7-25.05 36.55-25.05 36.3-9.35Q36.25-3.65 42.1-3.65L42.1-3.65Q45-3.65 46.5-5.08 48-6.5 47.95-9.35L47.95-9.35 47.75-25.05 52.6-25.05ZM76.35-25.05L76.6-24.65 76.3-20.8 71.45-21.15 69.35-21.15 69.25-7.95 69.4 0 64.6 0 64.8-7.5 64.7-21.15 62.65-21.15 57.7-20.8 57.35-21.2 57.7-25.05 76.35-25.05ZM90.59-25.4Q96.09-25.4 99.12-22.18 102.14-18.95 102.14-13.1L102.14-13.1Q102.14-6.6 98.92-3.1 95.69 0.4 89.74 0.4L89.74 0.4Q84.19 0.4 81.19-2.9 78.19-6.2 78.19-12.25L78.19-12.25Q78.19-18.55 81.42-21.98 84.64-25.4 90.59-25.4L90.59-25.4ZM90.14-21.45Q86.54-21.45 84.87-19.43 83.19-17.4 83.19-12.85L83.19-12.85Q83.19-7.8 84.84-5.65 86.49-3.5 90.09-3.5L90.09-3.5Q93.74-3.5 95.44-5.53 97.14-7.55 97.14-12.15L97.14-12.15Q97.14-17.15 95.49-19.3 93.84-21.45 90.14-21.45L90.14-21.45ZM133.04-25.05L135.49 0 131.24 0 130.74-7.6 129.59-17.8 129.29-17.8 122.79-2.65 119.04-2.65 113.04-17.8 112.64-17.8 111.54-8.05 110.89 0 106.84 0 109.54-25.05 115.14-25.05 116.29-21.35 120.99-9 121.34-9 126.34-21.4 127.59-25.05 133.04-25.05ZM154.29-25.05L162.74 0 157.89 0 157.24-3.1 156.34-5.85 150.74-5.9 145.74-5.85 144.79-3.35 144.09 0 139.34 0 148.69-25.05 154.29-25.05ZM151.09-9.55L155.09-9.6 151.54-20.55 151.19-20.55 147.14-9.6 151.09-9.55ZM181.99-25.05L182.24-24.65 181.94-20.8 177.09-21.15 174.99-21.15 174.89-7.95 175.03 0 170.24 0 170.44-7.5 170.34-21.15 168.28-21.15 163.34-20.8 162.99-21.2 163.34-25.05 181.99-25.05ZM197.08-3.8L203.83-4 204.18-3.65 203.78 0 187.73 0 187.93-7.5 187.73-25.05 203.93-25.05 204.23-24.65 203.88-21 197.53-21.25 192.53-21.2 192.43-14.7 197.23-14.65 201.58-14.8 201.83-14.4 201.53-10.7 196.83-10.85 192.38-10.8 192.33-7.95 192.43-3.85 197.08-3.8ZM220.23-25.25Q225.98-25.25 229.06-22.2 232.13-19.15 232.13-13.45L232.13-13.45Q232.13-6.8 228.73-3.28 225.33 0.25 219.03 0.25L219.03 0.25Q214.28 0.25 209.93 0L209.93 0 210.13-7.5 209.93-25.05 220.23-25.25ZM219.83-3.5Q223.38-3.5 225.28-5.7 227.18-7.9 227.18-12.35L227.18-12.35Q227.18-17 225.38-19.13 223.58-21.25 219.88-21.25L219.88-21.25Q216.78-21.25 214.73-21.05L214.73-21.05 214.53-7.95 214.63-3.85Q218.38-3.5 219.83-3.5L219.83-3.5ZM257.33-32.15Q262.18-32.15 264.8-29.68 267.43-27.2 267.43-22.55L267.43-22.55Q267.43-17.15 264.1-14 260.78-10.85 254.98-10.85L254.98-10.85 251.43-10.85 251.43-10.1 251.68 0 246.43 0 246.78-9.65 246.43-32.1 257.33-32.15ZM256.48-14.85Q259.23-15.4 260.65-17.23 262.08-19.05 262.08-22.1L262.08-22.1Q262.08-25.1 260.55-26.55 259.03-28 255.93-28.1L255.93-28.1 251.68-27.95 251.48-14.95 256.48-14.85ZM282.22-25.05L290.67 0 285.82 0 285.17-3.1 284.27-5.85 278.67-5.9 273.67-5.85 272.72-3.35 272.02 0 267.27 0 276.62-25.05 282.22-25.05ZM279.02-9.55L283.02-9.6 279.47-20.55 279.12-20.55 275.07-9.6 279.02-9.55ZM303.57-8.5L303.52-7 303.72 0 298.92 0 299.17-7 299.12-8.4 290.62-25.05 295.77-25.05 296.32-23.45 301.32-13.5 301.67-13.5 307.17-23.25 307.87-25.05 312.92-25.05 303.57-8.5ZM326.32-25.4Q331.82-25.4 334.84-22.18 337.87-18.95 337.87-13.1L337.87-13.1Q337.87-6.6 334.64-3.1 331.42 0.4 325.47 0.4L325.47 0.4Q319.92 0.4 316.92-2.9 313.92-6.2 313.92-12.25L313.92-12.25Q313.92-18.55 317.14-21.98 320.37-25.4 326.32-25.4L326.32-25.4ZM325.87-21.45Q322.27-21.45 320.59-19.43 318.92-17.4 318.92-12.85L318.92-12.85Q318.92-7.8 320.57-5.65 322.22-3.5 325.82-3.5L325.82-3.5Q329.47-3.5 331.17-5.53 332.87-7.55 332.87-12.15L332.87-12.15Q332.87-17.15 331.22-19.3 329.57-21.45 325.87-21.45L325.87-21.45ZM364.06-25.05L363.91-12.3 363.86-8.6Q363.91-4.35 361.16-2 358.41 0.35 353.36 0.35L353.36 0.35Q348.36 0.35 345.76-1.98 343.16-4.3 343.26-8.6L343.26-8.6 343.31-12.45 343.16-25.05 348.01-25.05 347.76-9.35Q347.71-3.65 353.56-3.65L353.56-3.65Q356.46-3.65 357.96-5.08 359.46-6.5 359.41-9.35L359.41-9.35 359.21-25.05 364.06-25.05ZM387.81-25.05L388.06-24.65 387.76-20.8 382.91-21.15 380.81-21.15 380.71-7.95 380.86 0 376.06 0 376.26-7.5 376.16-21.15 374.11-21.15 369.16-20.8 368.81-21.2 369.16-25.05 387.81-25.05ZM400.91-25.35Q404.11-25.35 407.31-24.1L407.31-24.1 406.56-19.55 405.81-19.4Q402.91-21.7 400.31-21.7L400.31-21.7Q398.46-21.7 397.38-20.75 396.31-19.8 396.31-18.55L396.31-18.55Q396.31-17.3 397.44-16.48 398.56-15.65 400.96-14.65L400.96-14.65Q403.21-13.7 404.58-12.88 405.96-12.05 406.96-10.7 407.96-9.35 407.96-7.35L407.96-7.35Q407.96-5.3 406.88-3.55 405.81-1.8 403.69-0.73 401.56 0.35 398.56 0.35L398.56 0.35Q396.76 0.35 394.76-0.05 392.76-0.45 390.91-1.25L390.91-1.25 391.56-6.1 392.11-6.4Q393.56-4.95 395.53-4.13 397.51-3.3 399.16-3.3L399.16-3.3Q400.96-3.3 402.08-4.23 403.21-5.15 403.21-6.5L403.21-6.5Q403.21-7.85 402.06-8.68 400.91-9.5 398.51-10.5L398.51-10.5Q396.36-11.45 394.96-12.28 393.56-13.1 392.58-14.48 391.61-15.85 391.61-17.85L391.61-17.85Q391.61-19.95 392.73-21.65 393.86-23.35 395.98-24.35 398.11-25.35 400.91-25.35L400.91-25.35ZM438.75-25.05L439-24.65 438.7-20.8 433.85-21.15 431.75-21.15 431.65-7.95 431.8 0 427 0 427.2-7.5 427.1-21.15 425.05-21.15 420.1-20.8 419.75-21.2 420.1-25.05 438.75-25.05ZM466.25-25.05L466-7.95 466.2 0 461.4 0 461.55-7.5 461.5-10.5 455.05-10.55 449.15-10.45 449.1-7.95 449.3 0 444.5 0 444.7-7.5 444.5-25.05 449.35-25.05 449.2-14.65 455.4-14.55 461.5-14.6 461.4-25.05 466.25-25.05ZM487.45-10Q490.35-5.65 494-1.15L494-1.15 493.95-0.55Q491.35 0.2 489.4 0.35L489.4 0.35 488.65-0.1Q485-6 483.5-8.7L483.5-8.7 479.1-8.65 479.1-7.95 479.3 0 474.5 0 474.7-7.5 474.5-25.05 484-25.1Q488.05-25.1 490.27-23.18 492.5-21.25 492.5-17.75L492.5-17.75Q492.5-15.3 491.17-13.3 489.85-11.3 487.45-10L487.45-10ZM479.3-21.3L479.15-12.5 483.5-12.35Q487.45-13.5 487.45-17.3L487.45-17.3Q487.45-19.35 486.25-20.33 485.05-21.3 482.6-21.4L482.6-21.4 479.3-21.3ZM509.65-25.4Q515.15-25.4 518.17-22.18 521.2-18.95 521.2-13.1L521.2-13.1Q521.2-6.6 517.97-3.1 514.75 0.4 508.8 0.4L508.8 0.4Q503.25 0.4 500.25-2.9 497.25-6.2 497.25-12.25L497.25-12.25Q497.25-18.55 500.47-21.98 503.7-25.4 509.65-25.4L509.65-25.4ZM509.2-21.45Q505.6-21.45 503.92-19.43 502.25-17.4 502.25-12.85L502.25-12.85Q502.25-7.8 503.9-5.65 505.55-3.5 509.15-3.5L509.15-3.5Q512.8-3.5 514.5-5.53 516.2-7.55 516.2-12.15L516.2-12.15Q516.2-17.15 514.55-19.3 512.9-21.45 509.2-21.45L509.2-21.45ZM547.39-25.05L547.24-12.3 547.19-8.6Q547.24-4.35 544.49-2 541.74 0.35 536.69 0.35L536.69 0.35Q531.69 0.35 529.09-1.98 526.49-4.3 526.59-8.6L526.59-8.6 526.64-12.45 526.49-25.05 531.34-25.05 531.09-9.35Q531.04-3.65 536.89-3.65L536.89-3.65Q539.79-3.65 541.29-5.08 542.79-6.5 542.74-9.35L542.74-9.35 542.54-25.05 547.39-25.05ZM566.24-25.35Q570.14-25.35 574.14-23.8L574.14-23.8 572.69-19.25 572.19-19.25Q570.29-20.4 568.77-20.9 567.24-21.4 565.39-21.4L565.39-21.4Q561.49-21.4 559.64-19.23 557.79-17.05 557.79-12.2L557.79-12.2Q557.79-7.5 559.54-5.53 561.29-3.55 565.29-3.55L565.29-3.55Q566.34-3.55 567.29-3.75 568.24-3.95 569.64-4.45L569.64-4.45 569.64-6.55 569.59-10.3 573.99-10.6 573.94-7.3 573.94-1.2Q568.84 0.35 565.04 0.35L565.04 0.35Q558.94 0.35 555.84-2.85 552.74-6.05 552.74-12L552.74-12Q552.74-18.45 556.27-21.9 559.79-25.35 566.24-25.35L566.24-25.35ZM602.79-25.05L602.54-7.95 602.74 0 597.94 0 598.09-7.5 598.04-10.5 591.59-10.55 585.69-10.45 585.64-7.95 585.84 0 581.04 0 581.24-7.5 581.04-25.05 585.89-25.05 585.74-14.65 591.94-14.55 598.04-14.6 597.94-25.05 602.79-25.05ZM644.98-32.2L644.68-9.6 644.83 0 639.28 0 624.18-24.05 623.83-24.05 623.78-10.75 623.93 0 619.23 0 619.48-9.5 619.28-32.1 624.73-32.1 639.88-8.05 640.28-8.05 640.18-31.85 644.98-32.2ZM664.83-4.15L672.58-4.4 672.88-3.95 672.53 0 653.58 0 653.93-9.65 653.58-32.1 672.63-32.1 672.93-31.65 672.53-27.7 664.93-27.9 658.83-27.85 658.68-18.5 664.48-18.4 669.78-18.55 670.13-18.15 669.73-14.2 664.08-14.35 658.63-14.25 658.58-10.1 658.73-4.2 664.83-4.15ZM691.98-32.1L702.33 0 697.03 0 696.28-3.6 694.88-8.05 688.08-8.2 681.93-8.05 680.43-3.85 679.63 0 674.48 0 685.93-32.1 691.98-32.1ZM688.43-12.15L693.58-12.25 688.98-27.05 688.63-27.05 683.38-12.25 688.43-12.15ZM722.28-12.85Q725.68-7.4 730.33-1.2L730.33-1.2 730.28-0.6Q727.88 0.2 725.33 0.45L725.33 0.45 724.73 0.05Q720.58-6.75 718.03-11.45L718.03-11.45 712.58-11.45 712.58-10.1 712.83 0 707.58 0 707.93-9.65 707.58-32.1 718.48-32.15Q723.33-32.15 725.98-29.73 728.63-27.3 728.63-22.8L728.63-22.8Q728.63-19.6 726.95-17.03 725.28-14.45 722.28-12.85L722.28-12.85ZM712.83-27.95L712.68-15.65 718.18-15.5Q723.23-17.05 723.23-22.4L723.23-22.4Q723.23-25.2 721.7-26.6 720.18-28 717.08-28.1L717.08-28.1 712.83-27.95ZM769.87-32.2L769.57-9.6 769.72 0 764.17 0 749.07-24.05 748.72-24.05 748.67-10.75 748.82 0 744.12 0 744.37-9.5 744.17-32.1 749.62-32.1 764.77-8.05 765.17-8.05 765.07-31.85 769.87-32.2ZM787.67-3.8L794.42-4 794.77-3.65 794.37 0 778.32 0 778.52-7.5 778.32-25.05 794.52-25.05 794.82-24.65 794.47-21 788.12-21.25 783.12-21.2 783.02-14.7 787.82-14.65 792.17-14.8 792.42-14.4 792.12-10.7 787.42-10.85 782.97-10.8 782.92-7.95 783.02-3.85 787.67-3.8ZM816.77-25.05L817.02-24.65 816.72-20.8 811.87-21.15 809.77-21.15 809.67-7.95 809.82 0 805.02 0 805.22-7.5 805.12-21.15 803.07-21.15 798.12-20.8 797.77-21.2 798.12-25.05 816.77-25.05ZM856.11-25.05L847.16 0 842.01 0 837.66-12.4 837.31-12.4 832.81 0 827.66 0 819.91-25.05 824.76-25.05 825.21-22.05 830.41-5.15 830.76-5.15 835.66-18.9 833.76-25.05 838.71-25.05 839.31-21.6 844.61-5.15 845.01-5.15 850.86-21.8 851.56-25.05 856.11-25.05ZM871.36-25.4Q876.86-25.4 879.89-22.18 882.91-18.95 882.91-13.1L882.91-13.1Q882.91-6.6 879.69-3.1 876.46 0.4 870.51 0.4L870.51 0.4Q864.96 0.4 861.96-2.9 858.96-6.2 858.96-12.25L858.96-12.25Q858.96-18.55 862.19-21.98 865.41-25.4 871.36-25.4L871.36-25.4ZM870.91-21.45Q867.31-21.45 865.64-19.43 863.96-17.4 863.96-12.85L863.96-12.85Q863.96-7.8 865.61-5.65 867.26-3.5 870.86-3.5L870.86-3.5Q874.51-3.5 876.21-5.53 877.91-7.55 877.91-12.15L877.91-12.15Q877.91-17.15 876.26-19.3 874.61-21.45 870.91-21.45L870.91-21.45ZM901.86-10Q904.76-5.65 908.41-1.15L908.41-1.15 908.36-0.55Q905.76 0.2 903.81 0.35L903.81 0.35 903.06-0.1Q899.41-6 897.91-8.7L897.91-8.7 893.51-8.65 893.51-7.95 893.71 0 888.91 0 889.11-7.5 888.91-25.05 898.41-25.1Q902.46-25.1 904.68-23.18 906.91-21.25 906.91-17.75L906.91-17.75Q906.91-15.3 905.58-13.3 904.26-11.3 901.86-10L901.86-10ZM893.71-21.3L893.56-12.5 897.91-12.35Q901.86-13.5 901.86-17.3L901.86-17.3Q901.86-19.35 900.66-20.33 899.46-21.3 897.01-21.4L897.01-21.4 893.71-21.3ZM934.21-25.1L924.21-13.3Q928.96-7.15 934.86-1.1L934.86-1.1 934.76-0.4Q932.41 0.2 930.06 0.45L930.06 0.45 929.36 0.15Q923.11-7.35 919.06-13L919.06-13 919.06-13.35 927.11-22.7 928.71-25.05 934.21-25.1ZM919.16-25.05L918.91-7.95 919.11 0 914.31 0 914.51-7.5 914.31-25.05 919.16-25.05Z" opacity="1" transform="matrix(1,0,0,1,0,0)" fill="#ffffff" class="undefined-text-1" data-fill-palette-color="secondary" id="text-1"></path></svg></g></svg></g></svg></g></svg></g><g transform="matrix(1,0,0,1,134.96149456898738,0)"><svg viewBox="0 0 125.59701086202524 125.59701086202524" height="125.59701086202524" width="125.59701086202524"><g><svg></svg></g><g id="icon-0"><svg viewBox="0 0 125.59701086202524 125.59701086202524" height="125.59701086202524" width="125.59701086202524"><g><path d="M0 62.799c0-34.683 28.116-62.799 62.799-62.799 34.683 0 62.799 28.116 62.798 62.799 0 34.683-28.116 62.799-62.798 62.798-34.683 0-62.799-28.116-62.799-62.798zM62.799 122.758c33.114 0 59.959-26.845 59.959-59.959 0-33.114-26.845-59.959-59.959-59.959-33.114 0-59.959 26.845-59.959 59.959 0 33.114 26.845 59.959 59.959 59.959z" data-fill-palette-color="accent" fill="#ffffff" stroke="transparent"></path><ellipse rx="62.1705203767025" ry="62.1705203767025" cx="62.79850543101262" cy="62.79850543101262" fill="#ffffff" stroke="transparent" stroke-width="0" fill-opacity="1" data-fill-palette-color="accent"></ellipse></g><g transform="matrix(1,0,0,1,35.11902391331371,29.04304016552615)"><svg viewBox="0 0 55.358963035397814 67.51093053097294" height="67.51093053097294" width="55.358963035397814"><g><svg version="1.1" xmlns="http://www.w3.org/2000/svg" xmlns:xlink="http://www.w3.org/1999/xlink" x="0" y="0" viewBox="0 0 82 100" enable-background="new 0 0 82 100" xml:space="preserve" height="67.51093053097294" width="55.358963035397814" class="icon-x-0" data-fill-palette-color="quaternary" id="x-0"><polygon points="82,30 82,0 52,0 52,12 44,12 44,0 38,0 38,47 30,47 30,35 0,35 0,65 30,65 30,53 38,53 38,100 44,100 44,88 52,88 	52,100 82,100 82,70 52,70 52,82 44,82 44,18 52,18 52,30 " fill="#4b91f1" data-fill-palette-color="quaternary"></polygon></svg></g></svg></g></svg></g></svg></g><g></g></svg></g></svg><rect width="395.52" height="193.2037694504699" fill="none" stroke="none" visibility="hidden"></rect></g></svg></g></svg>